<?xml version="1.0" standalone="no"?> <!DOCTYPE svg PUBLIC "-//W3C//DTD SVG 1.0//EN" "http://www.w3.org/TR/2001/REC-SVG-20010904/DTD/svg10.dtd" > <svg xmlns="http://www.w3.org/2000/svg" width="100%" height="100%">
<defs >
<font id="stagbook" horiz-adv-x="1079" ><font-face
    font-family="Stag Book"
    units-per-em="2048"
    panose-1="2 0 5 3 6 0 0 2 0 4"
    ascent="1639"
    descent="-410"
    alphabetic="0" />
<missing-glyph horiz-adv-x="1030" />
<glyph unicode=" " glyph-name="space" horiz-adv-x="339" />
<glyph unicode="!" glyph-name="exclam" horiz-adv-x="376" d="M125 369L70 1298V1434H309V1298L254 369H125ZM188 -10Q133 -10 94 27T55 119Q55 172 94 211T188 250T282 211T322 119Q322 65 283 28T188 -10Z" />
<glyph unicode="&quot;" glyph-name="quotedbl" horiz-adv-x="638" d="M106 1016L57 1309V1434H274V1309L223 1016H106ZM416 1016L365 1309V1434H582V1309L530 1016H416Z" />
<glyph unicode="#" glyph-name="numbersign" horiz-adv-x="980" d="M98 854V1034H279L338 1434H485L426 1034H641L700 1434H848L788 1034H942V854H762L729 631H883V451H702L639 0H492L555 451H340L276 0H129L193 451H39V631H219L252 854H98ZM399 854L367 631H582L614
854H399Z" />
<glyph unicode="$" glyph-name="dollar" horiz-adv-x="1058" d="M45 51V348H184Q197 240 256 195T453 137V643Q353 670 286 699T162 776T80 891T53 1053Q53 1219 157 1322T453 1442V1565H584V1446Q786 1438 948 1380V1102H811Q794 1200 746 1241T584 1296V823Q671
799 730 778T845 723T933 650T984 552T1004 418Q1004 228 895 119T584 -8V-209H453V-12Q241 -7 45 51ZM791 385Q791 473 741 521T584 604V143Q685 160 738 222T791 385ZM252 1081Q252 992 298 945T453 862V1294Q252 1262 252 1081Z" />
<glyph unicode="%" glyph-name="percent" horiz-adv-x="1560" d="M381 829Q450 829 488 890T526 1073T488 1257T381 1319Q311 1319 272 1257T233 1073T271 890T381 829ZM381 702Q312 702 252 725T145 794T71 911T43 1075T70 1238T145 1356T252 1424T381 1448Q523
1448 620 1351T717 1075T620 799T381 702ZM195 -70L1204 1493H1368L358 -70H195ZM1182 113Q1251 113 1289 173T1327 356T1289 540T1182 602Q1112 602 1073 540T1034 356T1072 174T1182 113ZM1182 -14Q1038 -14 941 83T844 358Q844 537 941 634T1182 731Q1324 731
1421 634T1518 358Q1518 180 1421 83T1182 -14Z" />
<glyph unicode="&amp;" glyph-name="ampersand" horiz-adv-x="1427" d="M557 -14Q314 -14 183 96T51 395Q51 681 362 815Q314 878 290 942T266 1094Q266 1254 376 1351T670 1448Q771 1448 877 1401Q899 1401 905 1434H1055V1079H893L866 1221Q788 1286 688 1286Q598
1286 549 1236T500 1104Q500 1033 534 978T641 846L1010 455Q1067 566 1094 719H981V850H1395V719H1331Q1280 719 1268 668Q1224 489 1133 326L1262 188Q1319 131 1356 131H1395V0H1126L987 147Q820 -14 557 -14ZM588 139Q759 139 877 264L455 711Q295 619 295
424Q295 300 368 220T588 139Z" />
<glyph unicode="&apos;" glyph-name="quotesingle" horiz-adv-x="331" d="M106 1016L57 1309V1434H274V1309L223 1016H106Z" />
<glyph unicode="(" glyph-name="parenleft" horiz-adv-x="606" d="M498 -100Q430 -79 369 -40T248 67T145 224T74 440T47 719Q47 866 74 990T145 1201T249 1353T370 1458T498 1518H575V1397Q250 1263 250 719Q250 159 575 16V-100H498Z" />
<glyph unicode=")" glyph-name="parenright" horiz-adv-x="606" d="M109 -100H31V16Q356 159 356 719Q356 1263 31 1397V1518H109Q175 1496 236 1458T357 1354T461 1201T532 991T559 719Q559 568 533 441T463 224T359 67T238 -40T109 -100Z" />
<glyph unicode="*" glyph-name="asterisk" horiz-adv-x="735" d="M313 743L281 831L356 1065L188 883L96 868L41 963L102 1034L346 1087L102 1141L41 1214L96 1309L188 1292L356 1108L281 1346L313 1434H424L455 1346L379 1108L549 1292L639 1309L694 1214L635
1141L389 1087L635 1034L694 963L641 868L549 883L379 1065L455 831L424 743H313Z" />
<glyph unicode="+" glyph-name="plus" horiz-adv-x="1015" d="M420 236V625H51V791H420V1180H598V791H965V625H598V236H420Z" />
<glyph unicode="," glyph-name="comma" horiz-adv-x="374" d="M45 -211V-109Q100 -98 129 -75T158 -20Q158 -5 152 3T128 21T104 35Q53 70 53 135Q53 184 89 217T180 250Q241 250 282 209T324 88Q324 -48 254 -120T45 -211Z" />
<glyph unicode="-" glyph-name="hyphen" horiz-adv-x="542" d="M55 524V694H485V524H55Z" />
<glyph unicode="." glyph-name="period" horiz-adv-x="372" d="M242 -10T186 -10T92 27T53 119T91 211T186 250Q241 250 280 212T319 119T281 28Z" />
<glyph unicode="/" glyph-name="slash" horiz-adv-x="671" d="M4 -100L500 1518H662L166 -100H4Z" />
<glyph unicode="0" glyph-name="zero" horiz-adv-x="1320" d="M659 -14Q536 -14 429 32T237 166T104 396T55 717Q55 895 104 1037T237 1267T429 1402T659 1448Q783 1448 891 1402T1083 1268T1217 1038T1266 717T1217 396T1084 166T891 32T659 -14ZM659 141Q830
141 924 280T1018 713Q1018 1008 924 1147T659 1286Q303 1286 303 713Q303 141 659 141Z" />
<glyph unicode="1" glyph-name="one" horiz-adv-x="727" d="M33 0V131H193Q216 131 235 152T254 197V1212L88 1130H29V1260L334 1434H492V197Q492 174 511 153T553 131H694V0H33Z" />
<glyph unicode="2" glyph-name="two" horiz-adv-x="1060" d="M45 0V109Q45 187 67 257T123 380T213 487T318 578T440 666Q595 772 643 814Q751 909 764 1015Q766 1032 766 1051Q766 1164 707 1226T526 1288Q403 1288 336 1244T250 1098H111V1370Q313 1448 535
1448Q765 1448 888 1349T1012 1053Q1012 992 997 938T951 839T886 757T799 682T705 617T601 553Q590 546 584 543Q512 500 461 464T360 381T283 283T252 176H811L831 367H987V0H45Z" />
<glyph unicode="3" glyph-name="three" horiz-adv-x="1032" d="M446 -14Q222 -14 37 59V309H174Q210 141 444 141Q584 141 660 211T737 412Q737 539 663 597T446 655H330V813H430Q723 813 723 1055Q723 1171 665 1229T481 1288Q256 1288 219 1128H86V1372Q290
1448 498 1448Q720 1448 838 1357T956 1079Q956 809 666 745V739Q981 688 981 399Q982 202 839 94T446 -14Z" />
<glyph unicode="4" glyph-name="four" horiz-adv-x="1107" d="M618 131Q641 131 661 153T682 197V354H33V541L696 1434H911V508H1075V354H911V197Q911 175 930 153T973 131H1075V0H516V131H618ZM190 516V508H682V1169H674L190 516Z" />
<glyph unicode="5" glyph-name="five" horiz-adv-x="1036" d="M446 -14Q226 -14 37 70V311H174Q194 220 258 181T442 141Q581 141 663 221T745 455Q745 601 672 671T481 741Q313 741 217 629H72V1434H932V1118H778L758 1257H246V811H252Q359 901 545 901Q637 901
715 875T855 798T952 661T987 463Q987 239 839 113T446 -14Z" />
<glyph unicode="6" glyph-name="six" horiz-adv-x="1171" d="M606 -14Q487 -14 388 29T214 156T97 375T55 686Q55 1047 240 1247T737 1448Q922 1448 1047 1407V1217H915Q848 1288 723 1288Q631 1288 559 1258T439 1176T361 1053T316 904T301 739Q367 808 466 851T680
895Q806 895 904 850T1062 706T1122 469Q1122 252 980 119T606 -14ZM606 139Q745 139 814 225T883 461Q883 599 812 667T616 735Q427 735 301 602Q310 362 386 251T606 139Z" />
<glyph unicode="7" glyph-name="seven" horiz-adv-x="1036" d="M209 0V96L836 1249V1255H209L190 1044H35V1434H1004V1237L436 0H209Z" />
<glyph unicode="8" glyph-name="eight" horiz-adv-x="1175" d="M845 -14T588 -14T191 97T51 401Q51 675 350 764V770Q117 848 117 1075Q117 1245 246 1346T588 1448Q802 1448 931 1347T1061 1075Q1061 847 823 770V764Q970 724 1047 632T1124 401Q1124 209 985
98ZM439 139T588 139T811 213T885 412Q885 538 811 614T588 690T366 614T291 412Q291 287 365 213ZM471 840T588 840T768 897T831 1063Q831 1172 768 1231T588 1290Q471 1290 409 1231T346 1063T408 897Z" />
<glyph unicode="9" glyph-name="nine" horiz-adv-x="1171" d="M567 1448Q687 1448 786 1406T960 1279T1076 1059T1118 748Q1118 381 940 184T449 -14Q246 -14 106 39V233H238Q279 186 325 164T461 141Q552 141 623 171T740 253T816 377T858 527T872 694Q807 625
708 582T494 539Q400 539 321 565T181 643T86 777T51 965Q51 1181 193 1314T567 1448ZM567 1288Q428 1288 359 1204T289 973Q289 835 360 767T557 698Q655 698 736 735T872 831Q863 1071 788 1179T567 1288Z" />
<glyph unicode=":" glyph-name="colon" horiz-adv-x="376" d="M244 -10T188 -10T94 27T55 119T93 211T188 250Q243 250 282 211T322 119Q322 65 283 28ZM244 600T188 600T94 636T55 727Q55 782 93 820T188 858T283 820T322 727Q322 673 283 637Z" />
<glyph unicode=";" glyph-name="semicolon" horiz-adv-x="376" d="M244 600T188 600T94 636T55 727Q55 782 93 820T188 858T283 820T322 727Q322 673 283 637ZM43 -211V-109Q98 -98 128 -75T158 -20Q158 -5 152 3T128 21T104 35Q53 70 53 135Q53 184 89 217T180
250Q241 250 282 209T324 88Q324 -48 254 -120T43 -211Z" />
<glyph unicode="&lt;" glyph-name="less" horiz-adv-x="940" d="M827 201L49 600V750L827 1149H885V985L272 680V676L885 367V201H827Z" />
<glyph unicode="=" glyph-name="equal" horiz-adv-x="997" d="M53 365V530H944V365H53ZM53 758V924H944V758H53Z" />
<glyph unicode="&gt;" glyph-name="greater" horiz-adv-x="940" d="M57 201V365L668 668V674L57 981V1149H113L893 750V600L113 201H57Z" />
<glyph unicode="?" glyph-name="question" horiz-adv-x="890" d="M266 369Q248 499 277 588T410 782Q415 787 442 814T479 853T513 892T547 939T572 986T592 1041T598 1098Q598 1191 552 1240T412 1290Q318 1290 262 1254T184 1135H49V1376Q138 1412 220 1430T420
1448Q620 1448 733 1358T846 1094Q846 1043 834 997T803 918T751 848T690 786T616 723Q554 672 520 639T456 562T416 473T412 369H266ZM352 -10Q297 -10 258 27T219 119Q219 172 258 211T352 250T446 212T485 119T447 28T352 -10Z" />
<glyph unicode="@" glyph-name="at" horiz-adv-x="1779" d="M1288 252Q1413 252 1497 363T1581 690Q1581 818 1532 921T1394 1093T1187 1198T926 1235Q818 1235 716 1207T522 1118T362 973T253 765T213 498Q213 332 265 207T412 7T627 -104T895 -141Q1199 -141
1391 -12H1475V-109Q1374 -181 1222 -222T895 -264Q763 -264 643 -237T414 -150T226 -3T100 213T53 498Q53 615 80 721T155 913T268 1071T412 1197T575 1287T750 1342T926 1360Q1053 1360 1171 1332T1390 1248T1567 1112T1686 925T1729 690Q1729 552 1689 444T1580
270T1429 172T1255 139Q1135 139 1078 176T1001 283Q941 217 874 178T715 139Q594 139 529 208T463 406Q463 630 612 801Q673 870 755 908T932 946Q1059 946 1141 868Q1213 936 1260 936H1333L1210 403Q1201 360 1201 327T1222 273T1288 252ZM772 266Q881 266 999
395L1090 786Q1037 815 961 815Q844 815 762 707Q668 581 668 399Q668 331 696 299T772 266Z" />
<glyph unicode="A" glyph-name="A" horiz-adv-x="1476" d="M1096 131L987 453H426L371 295Q312 131 436 131H532V0H23V131H74Q133 131 162 201L532 1229Q543 1259 530 1278T489 1298H379V1434H897L1317 199Q1326 171 1349 151T1399 131H1454V0H895V131H1096ZM713
1257L477 592H942L721 1257H713Z" />
<glyph unicode="B" glyph-name="B" horiz-adv-x="1224" d="M33 0V135H119Q142 135 162 157T182 201V1235Q182 1259 162 1281T119 1303H33V1434H604Q1118 1434 1118 1071Q1118 938 1044 864T829 760V754Q995 731 1087 646T1180 408Q1180 205 1032 103T627 0H33ZM420
143H621Q783 143 857 211T932 418Q932 556 858 617T612 678H420V143ZM420 817H596Q741 817 811 874T881 1055Q881 1182 813 1235T598 1288H420V817Z" />
<glyph unicode="C" glyph-name="C" horiz-adv-x="1290" d="M735 -14Q420 -14 237 176T53 717Q53 892 104 1031T248 1261T468 1400T748 1448Q913 1448 1034 1395Q1047 1395 1056 1406T1067 1434H1217V995H1055L1030 1198Q922 1288 754 1288Q656 1288 575 1255T433
1155T337 979T303 725Q303 438 417 290T743 141Q996 141 1128 324H1241V156Q1040 -14 735 -14Z" />
<glyph unicode="D" glyph-name="D" horiz-adv-x="1413" d="M33 0V131H119Q142 131 162 153T182 197V1231Q182 1255 162 1276T119 1298H33V1434H612Q979 1434 1168 1261T1358 721Q1358 358 1165 179T604 0H33ZM420 139H604Q865 139 987 276T1110 719Q1110 1021
989 1154T604 1288H420V139Z" />
<glyph unicode="E" glyph-name="E" horiz-adv-x="1204" d="M33 0V131H119Q142 131 162 153T182 197V1231Q182 1255 162 1276T119 1298H33V1434H1141V1053H991L967 1288H416V803H696L713 973H856V492H713L696 662H416V143H985L1010 406H1163V0H33Z" />
<glyph unicode="F" glyph-name="F" horiz-adv-x="1169" d="M33 0V131H119Q142 131 162 153T182 197V1231Q182 1255 162 1276T119 1298H33V1434H1130V1040H983L956 1288H420V770H692L711 944H852V446H711L692 629H420V131H604V0H33Z" />
<glyph unicode="G" glyph-name="G" horiz-adv-x="1376" d="M715 -14Q405 -14 229 175T53 717Q53 892 104 1031T247 1261T468 1400T750 1448Q772 1448 794 1447T833 1445T869 1440T900 1435T929 1429T953 1422T976 1414T995 1408T1013 1401T1028 1395Q1039 1395
1048 1404T1061 1434H1210V1008H1049L1024 1190Q897 1288 752 1288Q655 1288 575 1255T433 1155T337 979T303 725Q303 437 411 289T725 141Q876 141 991 205V530H821V666H1348V530H1288Q1264 530 1245 509T1225 465V0H1094Q1094 20 1080 39T1042 59Q1041 59 1018
49T988 37T956 25T917 13T876 3T827 -6T776 -11T715 -14Z" />
<glyph unicode="H" glyph-name="H" horiz-adv-x="1486" d="M33 0V131H119Q142 131 162 153T182 197V1231Q182 1255 162 1276T119 1298H33V1434H602V1298H420V805H1065V1298H883V1434H1454V1298H1368Q1344 1298 1324 1277T1303 1231V197Q1303 174 1323 153T1368
131H1454V0H883V131H1065V666H420V131H602V0H33Z" />
<glyph unicode="I" glyph-name="I" horiz-adv-x="634" d="M33 0V131H135Q159 131 179 152T199 197V1231Q199 1255 179 1276T135 1298H33V1434H602V1298H500Q476 1298 456 1277T436 1231V197Q436 174 456 153T500 131H602V0H33Z" />
<glyph unicode="J" glyph-name="J" horiz-adv-x="974" d="M352 -14Q179 -14 29 59V231H160Q224 141 348 141Q449 141 496 192T543 346V1231Q543 1255 524 1276T481 1298H383V1434H942V1298H844Q821 1298 802 1277T782 1231V342Q782 161 677 74T352 -14Z" />
<glyph unicode="K" glyph-name="K" horiz-adv-x="1404" d="M33 0V131H119Q142 131 162 153T182 197V1231Q182 1255 162 1276T119 1298H33V1434H586V1298H420V666L913 1188Q960 1237 952 1267T889 1298H852V1434H1352V1298H1292Q1247 1298 1180 1231L791 842L1225
197Q1266 131 1317 131H1372V0H999V123L627 678L420 469V131H586V0H33Z" />
<glyph unicode="L" glyph-name="L" horiz-adv-x="1161" d="M33 0V131H119Q142 131 162 153T182 197V1231Q182 1255 162 1276T119 1298H33V1434H627V1298H420V143H942L965 444H1126V0H33Z" />
<glyph unicode="M" glyph-name="M" horiz-adv-x="1785" d="M33 0V131H117Q141 131 160 152T180 197V1231Q180 1255 161 1276T117 1298H33V1434H553L891 362H897L1239 1434H1753V1298H1667Q1643 1298 1624 1277T1604 1231V197Q1604 174 1623 153T1667 131H1753V0H1206V131H1366V1276H1352L944
0H778L373 1276H360V131H522V0H33Z" />
<glyph unicode="N" glyph-name="N" horiz-adv-x="1454" d="M33 0V131H119Q142 131 162 153T182 197V1231Q182 1255 162 1276T119 1298H33V1434H434L1092 387H1098V1298H918V1434H1423V1298H1339Q1317 1298 1298 1277T1278 1231V0H1073L369 1114H360V131H545V0H33Z" />
<glyph unicode="O" glyph-name="O" horiz-adv-x="1484" d="M743 -14Q602 -14 478 34T260 173T110 404T55 717T110 1030T259 1260T478 1399T743 1448Q883 1448 1007 1400T1225 1261T1375 1030T1430 717T1375 405T1226 174T1007 35T743 -14ZM743 141Q939 141 1060
289T1182 713Q1182 990 1061 1138T743 1286Q545 1286 424 1138T303 713Q303 437 424 289T743 141Z" />
<glyph unicode="P" glyph-name="P" horiz-adv-x="1210" d="M33 0V131H119Q142 131 162 153T182 197V1231Q182 1255 162 1276T119 1298H33V1434H618Q1169 1434 1169 999Q1169 774 1025 667T614 559H420V131H602V0H33ZM420 705H614Q781 705 853 776T926 997Q926
1143 852 1214T614 1286H420V705Z" />
<glyph unicode="Q" glyph-name="Q" horiz-adv-x="1484" d="M1292 -254Q1226 -147 1097 -93T743 -18Q585 -4 461 46T245 185T104 408T55 717Q55 890 110 1030T259 1260T478 1399T743 1448Q883 1448 1007 1400T1225 1261T1375 1030T1430 717Q1430 465 1322 307T1028
86V80Q1211 55 1317 3T1493 -131V-254H1292ZM547 141T743 141T1060 289T1182 713Q1182 990 1061 1138T743 1286Q545 1286 424 1138T303 713Q303 438 425 290Z" />
<glyph unicode="R" glyph-name="R" horiz-adv-x="1337" d="M33 0V131H119Q142 131 162 153T182 197V1231Q182 1255 162 1276T119 1298H33V1434H618Q875 1434 1018 1338T1161 1038Q1161 892 1078 812T840 702V696Q957 672 1021 607T1128 377L1180 186Q1187 161
1204 146T1239 131H1309V0H973L893 387Q864 525 801 576T598 627H420V131H602V0H33ZM420 768H614Q778 768 848 829T918 1024Q918 1161 846 1225T614 1290H420V768Z" />
<glyph unicode="S" glyph-name="S" horiz-adv-x="1067" d="M530 -14Q356 -14 231 53Q208 53 201 0H45V418H207L227 244Q285 187 351 161T526 135Q653 135 726 194T799 369Q799 407 791 437T771 490T736 532T691 563T633 589T567 610T491 631Q461 639 446 643Q249
698 160 791T70 1061Q70 1249 194 1348T524 1448Q591 1448 649 1436T727 1415T782 1389Q793 1389 802 1403T813 1434H963V1055H805L784 1198Q737 1243 678 1269T524 1296Q272 1296 272 1083Q272 1043 281 1013T311 959T354 920T416 889T489 864T577 840Q592 836
600 834Q710 804 781 773T908 693T989 575T1014 408Q1014 202 891 94T530 -14Z" />
<glyph unicode="T" glyph-name="T" horiz-adv-x="1298" d="M369 0V131H467Q491 131 510 152T530 197V1292H223L203 989H49V1434H1249V989H1096L1075 1292H768V197Q768 174 788 153T831 131H930V0H369Z" />
<glyph unicode="U" glyph-name="U" horiz-adv-x="1464" d="M739 -14Q471 -14 326 119T180 520V1231Q180 1255 160 1276T115 1298H33V1434H596V1298H416V508Q416 403 440 332T513 221T621 166T764 150Q846 150 905 166T1013 220T1085 331T1110 508V1298H930V1434H1432V1298H1350Q1327
1298 1307 1276T1286 1231V520Q1286 249 1149 118T739 -14Z" />
<glyph unicode="V" glyph-name="V" horiz-adv-x="1466" d="M598 0L162 1231Q153 1258 130 1278T80 1298H31V1434H578V1298H397L758 236H762L1090 1165Q1136 1298 1022 1298H934V1434H1436V1298H1391Q1361 1298 1337 1278T1300 1227L854 0H598Z" />
<glyph unicode="W" glyph-name="W" horiz-adv-x="1998" d="M461 0L150 1231Q140 1260 117 1279T68 1298H31V1434H551L561 1298H379L618 307H625L924 1434H1116L1417 307H1421L1634 1163Q1678 1298 1561 1298H1481V1434H1968V1298H1933Q1904 1298 1880 1278T1845
1225L1524 0H1268L997 1020H993L717 0H461Z" />
<glyph unicode="X" glyph-name="X" horiz-adv-x="1361" d="M33 0V131H90Q112 131 137 145T176 178L537 735L199 1235Q157 1298 106 1298H33V1434H578V1298H434L733 852L936 1188Q966 1245 953 1271T897 1298H840V1434H1329V1298H1249Q1230 1298 1205 1282T1167
1245L836 717L1188 195Q1209 164 1236 148T1286 131H1329V0H791V131H952L637 606L403 231Q377 188 390 160T444 131H520V0H33Z" />
<glyph unicode="Y" glyph-name="Y" horiz-adv-x="1349" d="M401 0V131H500Q523 131 543 152T563 197V594L162 1237Q122 1298 74 1298H31V1434H563V1298H395L717 770H721L958 1163Q995 1228 976 1263T893 1298H827V1434H1319V1298H1280Q1228 1298 1188 1233L801
602V197Q801 174 820 153T864 131H963V0H401Z" />
<glyph unicode="Z" glyph-name="Z" horiz-adv-x="1132" d="M33 0V162L848 1282V1288H262L236 1055H88V1434H1100V1268L285 147V143H911L936 401H1090V0H33Z" />
<glyph unicode="[" glyph-name="bracketleft" horiz-adv-x="514" d="M63 -100V1518H479V1380H262V33H479V-100H63Z" />
<glyph unicode="\" glyph-name="backslash" horiz-adv-x="671" d="M172 1518L668 -100H506L10 1518H172Z" />
<glyph unicode="]" glyph-name="bracketright" horiz-adv-x="514" d="M451 1518V-100H33V33H252V1380H33V1518H451Z" />
<glyph unicode="^" glyph-name="asciicircum" horiz-adv-x="763" d="M51 1001V1057L297 1434H465L713 1057V1001H569L385 1255H379L193 1001H51Z" />
<glyph unicode="_" glyph-name="underscore" horiz-adv-x="727" d="M-4 -332V-199H731V-332H-4Z" />
<glyph unicode="`" glyph-name="grave" horiz-adv-x="819" d="M362 1161L170 1354V1434H391L485 1161H362Z" />
<glyph unicode="a" glyph-name="a" horiz-adv-x="1077" d="M385 -12Q226 -12 132 70T37 307Q37 467 152 550T461 633Q591 633 707 604V745Q707 845 652 888T489 932Q322 932 211 831H109V1001Q277 1085 528 1085Q727 1085 827 1013T928 768V197Q928 166 946 149T993
131H1049V20Q997 -12 907 -12Q737 -12 713 133Q595 -12 385 -12ZM455 129Q534 129 593 159T707 248V481Q607 502 506 502Q256 502 256 313Q256 129 455 129Z" />
<glyph unicode="b" glyph-name="b" horiz-adv-x="1157" d="M641 -12Q520 -12 442 20T305 113Q292 65 267 33T221 0H102V1241Q102 1260 85 1279T47 1298H-39V1434H283Q324 1434 324 1378V911Q481 1085 698 1085Q762 1085 819 1069T930 1014T1024 916T1086 763T1110
551Q1110 449 1091 364T1039 219T961 113T864 41T755 1T641 -12ZM580 121Q639 121 689 139T784 201T855 329T881 532Q881 646 859 726T795 847T707 906T598 924Q469 924 324 807V221Q424 121 580 121Z" />
<glyph unicode="c" glyph-name="c" horiz-adv-x="1036" d="M584 -12Q319 -12 181 132T43 535Q43 791 193 938T596 1085Q825 1085 952 1028V803H811Q798 879 745 910T592 942Q441 942 358 838T274 532Q274 328 351 230T588 131Q760 131 850 254H963V94Q813 -12 584 -12Z" />
<glyph unicode="d" glyph-name="d" horiz-adv-x="1230" d="M494 -12Q425 -12 364 4T243 59T142 157T73 311T47 524T75 739T150 899T258 1005T384 1066T516 1085Q719 1085 846 958V1298H690V1434H1026Q1067 1434 1067 1378V188Q1067 168 1085 150T1122 131H1202V0H893Q873
0 862 32T850 147Q713 -12 494 -12ZM557 125Q714 125 846 268V840Q731 930 588 930Q524 930 472 911T374 849T302 724T276 530Q276 413 300 330T366 204T454 143T557 125Z" />
<glyph unicode="e" glyph-name="e" horiz-adv-x="1081" d="M588 -12Q322 -12 183 132T43 532Q43 785 186 935T565 1085Q1040 1085 1040 569Q1040 551 1039 527T1038 502H274Q287 129 604 129Q709 129 771 160T881 250H1008V98Q840 -12 588 -12ZM279 635H817Q811
801 749 874T565 948Q441 948 368 870T279 635Z" />
<glyph unicode="f" glyph-name="f" horiz-adv-x="645" d="M29 0V131H104Q125 131 143 148T162 186V934H20V1073H162V1165Q162 1311 244 1380T475 1450Q576 1450 643 1425V1298H541Q461 1298 422 1270T383 1159V1073H608V934H383V186Q383 165 400 148T438 131H543V0H29Z" />
<glyph unicode="g" glyph-name="g" horiz-adv-x="1036" d="M459 -352Q224 -352 115 -284T6 -98Q6 -12 56 44T193 143Q109 187 109 289Q109 400 217 487Q92 580 92 741Q92 895 203 990T502 1085Q574 1085 635 1073H1004V934H911Q895 934 881 923T866 897Q913 832
913 741Q913 591 802 501T502 410Q388 410 303 444Q274 402 274 354Q274 279 375 279H676Q1001 279 1001 12Q1001 -157 871 -254T459 -352ZM469 -211Q631 -211 712 -163T793 -35Q793 28 754 57T627 86H279Q207 28 207 -53Q207 -131 265 -171T469 -211ZM502 539Q601
539 655 592T709 741Q709 837 655 892T502 948Q405 948 351 893T297 741Q297 646 350 593T502 539Z" />
<glyph unicode="h" glyph-name="h" horiz-adv-x="1236" d="M385 809V131H535V0H29V131H109Q128 131 146 148T164 186V1241Q164 1260 146 1279T109 1298H23V1434H344Q385 1434 385 1378V913Q470 991 579 1038T807 1085Q869 1085 916 1073T1004 1032T1065 949T1087
819V186Q1087 165 1104 148T1141 131H1208V0H719V131H866V745Q866 841 826 876T698 911Q556 911 385 809Z" />
<glyph unicode="i" glyph-name="i" horiz-adv-x="548" d="M29 0V131H109Q128 131 146 148T164 186V877Q164 896 147 915T111 934H20V1073H344Q366 1073 375 1052T385 979V186Q385 165 402 148T440 131H520V0H29ZM321 1186T268 1186T178 1222T141 1311T178 1399T268
1436T358 1400T395 1311T358 1223Z" />
<glyph unicode="j" glyph-name="j" horiz-adv-x="522" d="M100 -344Q9 -344 -55 -322V-209H18Q98 -209 131 -174T164 -61V877Q164 896 147 915T111 934H20V1073H344Q366 1073 375 1052T385 979V-72Q385 -216 314 -280T100 -344ZM321 1186T268 1186T178 1222T141
1311T178 1399T268 1436T358 1400T395 1311T358 1223Z" />
<glyph unicode="k" glyph-name="k" horiz-adv-x="1134" d="M29 0V131H109Q128 131 146 148T164 186V1241Q164 1260 146 1279T109 1298H23V1434H344Q385 1434 385 1378V512L725 858Q748 883 741 908T705 934H655V1073H1100V934H1047Q1027 934 1001 922T956 891L690
625L989 195Q1034 131 1079 131H1110V0H864L541 477L385 324V131H520V0H29Z" />
<glyph unicode="l" glyph-name="l" horiz-adv-x="548" d="M29 0V131H106Q127 131 145 148T164 186V1241Q164 1260 146 1279T106 1298H23V1434H344Q385 1434 385 1378V186Q385 165 402 148T440 131H520V0H29Z" />
<glyph unicode="m" glyph-name="m" horiz-adv-x="1863" d="M29 0V131H109Q128 131 146 148T164 186V877Q164 895 146 914T109 934H20V1073H334Q385 1073 385 942V911Q578 1085 780 1085Q1002 1085 1040 905Q1244 1085 1446 1085Q1714 1085 1714 819V186Q1714 165
1731 148T1769 131H1837V0H1348V131H1493V750Q1493 843 1457 877T1341 911Q1217 911 1051 811V131H1186V0H692V131H827V750Q827 843 791 877T678 911Q543 911 385 811V131H530V0H29Z" />
<glyph unicode="n" glyph-name="n" horiz-adv-x="1236" d="M29 0V131H109Q128 131 146 148T164 186V877Q164 895 146 914T109 934H20V1073H334Q388 1073 385 942V913Q470 991 579 1038T807 1085Q869 1085 916 1073T1004 1032T1065 949T1087 819V186Q1087 165 1104
148T1141 131H1208V0H719V131H866V745Q866 841 826 876T698 911Q556 911 385 809V131H535V0H29Z" />
<glyph unicode="o" glyph-name="o" horiz-adv-x="1179" d="M590 -12Q354 -12 199 136T43 532Q43 700 116 827T312 1019T590 1085Q745 1085 868 1020T1064 827T1137 532Q1137 367 1065 242T869 53T590 -12ZM446 131T590 131T820 234T907 530Q907 725 821 830T590
936T359 831T272 530Q272 338 359 235Z" />
<glyph unicode="p" glyph-name="p" horiz-adv-x="1204" d="M29 -332V-209H109Q128 -209 146 -192T164 -154V877Q164 895 146 914T109 934H20V1073H334Q358 1073 370 1047T383 948V922Q542 1085 745 1085Q808 1085 866 1068T977 1011T1070 912T1133 761T1157 555Q1157
438 1130 344T1059 189T953 88T826 30T690 12Q497 12 385 111V-209H545V-332H29ZM631 143Q677 143 716 152T796 188T864 258T910 372T928 537Q928 924 647 924Q525 924 385 809V240Q487 143 631 143Z" />
<glyph unicode="q" glyph-name="q" horiz-adv-x="1161" d="M672 -332V-209H831V152Q774 91 687 52T492 12Q423 12 362 26T242 78T141 172T73 321T47 530Q47 628 66 711T119 854T197 959T294 1032T401 1072T510 1085Q717 1085 840 952Q850 1009 875 1041T926 1073H1055V-154Q1055
-174 1072 -191T1110 -209H1194V-332H672ZM557 150Q711 150 831 270V844Q711 930 588 930Q525 930 472 911T374 849T302 726T276 535Q276 442 292 372T335 260T399 194T474 159T557 150Z" />
<glyph unicode="r" glyph-name="r" horiz-adv-x="800" d="M29 0V131H109Q128 131 146 148T164 186V877Q164 895 146 914T109 934H20V1073H334Q360 1073 372 1043T385 930V895Q453 981 528 1031T705 1081Q734 1081 766 1073V891H723Q605 891 527 864T385 782V131H555V0H29Z"
/>
<glyph unicode="s" glyph-name="s" horiz-adv-x="899" d="M416 -12Q196 -12 43 49V272H176Q195 197 250 164T414 131Q527 131 589 172T651 295Q651 367 596 398T395 453Q219 478 139 546T59 768Q59 918 167 1001T469 1085Q678 1085 821 1032V819H692Q675 881 623
909T461 938Q363 938 308 901T252 797Q252 727 303 695T496 641Q690 612 773 546T856 326Q856 168 745 78T416 -12Z" />
<glyph unicode="t" glyph-name="t" horiz-adv-x="667" d="M459 -14Q309 -14 234 47T158 254V934H20V1073H158V1362H379V1073H623V934H379V279Q379 191 411 161T528 131H637V12Q565 -14 459 -14Z" />
<glyph unicode="u" glyph-name="u" horiz-adv-x="1243" d="M442 -14Q382 -14 334 -1T244 41T179 123T156 252V879Q156 899 138 916T100 934H20V1073H377V322Q377 224 421 186T549 147Q693 147 854 254V934H700V1073H1075V188Q1075 168 1093 150T1133 131H1214V0H905Q856
0 856 125V152Q670 -14 442 -14Z" />
<glyph unicode="v" glyph-name="v" horiz-adv-x="1198" d="M485 0L137 868Q110 934 61 934H20V1073H494V934H342L608 215H612L840 815Q882 934 784 934H731V1073H1161V934H1124Q1070 934 1040 866L688 0H485Z" />
<glyph unicode="w" glyph-name="w" horiz-adv-x="1681" d="M387 0L139 868Q130 897 109 915T63 934H20V1073H467V934H344L524 272H528L760 1073H950L1182 272H1186L1335 815Q1353 875 1338 904T1270 934H1219V1073H1645V934H1606Q1542 934 1522 866L1270 0H1061L831
784H827L596 0H387Z" />
<glyph unicode="x" glyph-name="x" horiz-adv-x="1132" d="M33 0V131H74Q95 131 120 143T160 174L432 535L168 870Q117 934 78 934H25V1073H514V934H389L610 639L768 860Q789 889 781 911T739 934H688V1073H1087V934H1049Q1029 934 1006 921T969 889L709 545L983
195Q1031 131 1081 131H1104V0H629V131H764L528 444L373 221Q347 183 354 157T399 131H440V0H33Z" />
<glyph unicode="y" glyph-name="y" horiz-adv-x="1204" d="M201 -332V-209Q381 -152 498 27L135 868Q108 934 59 934H20V1073H496V934H338L612 274L834 815Q882 934 782 934H729V1073H1167V934H1120Q1072 934 1040 866L700 82Q567 -226 387 -332H201Z" />
<glyph unicode="z" glyph-name="z" horiz-adv-x="987" d="M33 0V150L694 928H229L207 737H74V1073H950V920L287 143H770L791 334H930V0H33Z" />
<glyph unicode="{" glyph-name="braceleft" horiz-adv-x="657" d="M481 -100Q205 -100 205 150V539Q205 590 175 621T84 653H33V791H84Q146 791 175 822T205 905V1268Q205 1391 275 1454T481 1518H625V1380H496Q454 1380 429 1353T403 1284V920Q403 839 366 793T246
725V721Q329 699 366 652T403 524V131Q403 88 428 61T496 33H625V-100H481Z" />
<glyph unicode="|" glyph-name="bar" horiz-adv-x="317" d="M80 -100V1518H238V-100H80Z" />
<glyph unicode="}" glyph-name="braceright" horiz-adv-x="657" d="M176 -100H33V33H162Q203 33 228 60T254 131V510Q254 591 291 638T412 707V713Q328 734 291 780T254 907V1284Q254 1326 229 1353T162 1380H33V1518H176Q312 1518 382 1455T453 1268V893Q453
841 483 810T573 778H625V641H573Q513 641 483 609T453 526V150Q453 -100 176 -100Z" />
<glyph unicode="~" glyph-name="asciitilde" horiz-adv-x="727" d="M33 465V588Q100 711 227 711Q279 711 372 682T492 653Q554 653 578 723H692V600Q625 473 500 473Q449 473 355 506T233 539Q173 539 150 465H33Z" />
</font>
</defs>
</svg>
